<svg xmlns="http://www.w3.org/2000/svg" viewBox="0 0 344.73 189.33"><defs><style>.cls-1{fill:#3c3c3b;}.cls-2{fill:#41af64;}.cls-3{fill:none;}</style></defs><g id="lebbing"><g id="Ebene_3" data-name="Ebene 3"><path class="cls-1" d="M134.22,97.18a13.79,13.79,0,0,1-3.08-.25,1.76,1.76,0,0,1-1.21-.8,3.94,3.94,0,0,1-.27-1.68V63.1H124.4V93.31a13,13,0,0,0,.84,5.45A4.08,4.08,0,0,0,128,101a27.81,27.81,0,0,0,6.18.49Z" transform="translate(-0.03)"/><path class="cls-1" d="M161.57,90.27H145a14.73,14.73,0,0,0,.43,4.29,2.78,2.78,0,0,0,2,1.76,19.09,19.09,0,0,0,5.28.5,71.69,71.69,0,0,0,7.84-.5v4.37a34.9,34.9,0,0,1-4.16.55c-1.69.13-3.33.19-4.92.19-3.54,0-6.13-.4-7.79-1.21a5.91,5.91,0,0,1-3.22-3.85,31.12,31.12,0,0,1-.74-7.93,30.44,30.44,0,0,1,.74-7.74,6.33,6.33,0,0,1,3.18-4c1.62-.9,4.11-1.34,7.49-1.34s5.59.44,7.07,1.34A5.87,5.87,0,0,1,161,80.57a39.51,39.51,0,0,1,.57,7.87Zm-14.47-9.8a2.77,2.77,0,0,0-1.61,1.81,17.11,17.11,0,0,0-.45,4.17h11.52v-.1a13,13,0,0,0-.5-4.17,2.87,2.87,0,0,0-1.61-1.78A9.88,9.88,0,0,0,151,80,10.59,10.59,0,0,0,147.1,80.47Z" transform="translate(-0.03)"/><path class="cls-1" d="M176.4,100.67a5.57,5.57,0,0,1-3.08-2.91H173l-.15,3.28H168V63.1h5.25V78.66h.3a5.73,5.73,0,0,1,3-2.6,14.08,14.08,0,0,1,4.86-.72,10.21,10.21,0,0,1,5.31,1.16,6.55,6.55,0,0,1,2.7,4,29.51,29.51,0,0,1,.82,7.92,28.94,28.94,0,0,1-.84,7.91,6.6,6.6,0,0,1-2.78,4,10.48,10.48,0,0,1-5.41,1.16A13.68,13.68,0,0,1,176.4,100.67ZM183,96a2.93,2.93,0,0,0,1.57-2.13,26.15,26.15,0,0,0,.39-5.43,25.73,25.73,0,0,0-.39-5.41A2.91,2.91,0,0,0,183,80.87a10.48,10.48,0,0,0-3.94-.52,9.66,9.66,0,0,0-3.13.42,3.12,3.12,0,0,0-1.73,1.36,5.7,5.7,0,0,0-.8,2.36,30.83,30.83,0,0,0-.2,3.9,31.41,31.41,0,0,0,.2,3.92,6.1,6.1,0,0,0,.8,2.43c.72,1.15,2.35,1.73,4.86,1.73A10.48,10.48,0,0,0,183,96Z" transform="translate(-0.03)"/><path class="cls-1" d="M205.08,100.67A5.57,5.57,0,0,1,202,97.76h-.35l-.14,3.28h-4.87V63.1h5.26V78.66h.3a5.73,5.73,0,0,1,3-2.6,14.08,14.08,0,0,1,4.86-.72,10.21,10.21,0,0,1,5.31,1.16,6.59,6.59,0,0,1,2.7,4,29.51,29.51,0,0,1,.82,7.92,28.94,28.94,0,0,1-.84,7.91,6.64,6.64,0,0,1-2.78,4,10.48,10.48,0,0,1-5.41,1.16A13.64,13.64,0,0,1,205.08,100.67ZM211.7,96a2.89,2.89,0,0,0,1.56-2.13,25.29,25.29,0,0,0,.4-5.43,24.89,24.89,0,0,0-.4-5.41,2.88,2.88,0,0,0-1.56-2.11,10.51,10.51,0,0,0-3.94-.52,9.66,9.66,0,0,0-3.13.42,3.12,3.12,0,0,0-1.73,1.36,5.56,5.56,0,0,0-.8,2.36,30.83,30.83,0,0,0-.2,3.9,31.41,31.41,0,0,0,.2,3.92,6,6,0,0,0,.8,2.43q1.08,1.73,4.86,1.73A10.51,10.51,0,0,0,211.7,96Z" transform="translate(-0.03)"/><path class="cls-1" d="M225.22,68.46V63.1h5.51v5.36Zm.1,32.58V75.73h5.26V101Z" transform="translate(-0.03)"/><path class="cls-1" d="M255.18,87.44a23,23,0,0,0-.35-4.83,2.41,2.41,0,0,0-1.39-1.84,10.77,10.77,0,0,0-3.62-.42,7.34,7.34,0,0,0-3.84.79,3.66,3.66,0,0,0-1.64,2.36A20.5,20.5,0,0,0,244,88V101h-5.26V75.73h4.86l.15,3.33h.4a5.79,5.79,0,0,1,2.8-2.81,12.31,12.31,0,0,1,5.23-.91,10.19,10.19,0,0,1,5.26,1.09,5.39,5.39,0,0,1,2.41,3.15,20.41,20.41,0,0,1,.62,5.63V101h-5.26Z" transform="translate(-0.03)"/><path class="cls-1" d="M272.42,111.11c-1.64-.1-2.93-.22-3.89-.35V106.4q4.17.19,7.54.19a17.15,17.15,0,0,0,5.26-.57,3.14,3.14,0,0,0,2.06-2,17.7,17.7,0,0,0,.47-4.84V97.86h-.25a5.32,5.32,0,0,1-2.9,2.61,13.91,13.91,0,0,1-4.84.72,10.7,10.7,0,0,1-5.41-1.14,6.5,6.5,0,0,1-2.78-3.88,27.75,27.75,0,0,1-.84-7.78,29,29,0,0,1,.84-7.92,6.55,6.55,0,0,1,2.81-4,10.69,10.69,0,0,1,5.43-1.16,13.29,13.29,0,0,1,4.79.79,5.68,5.68,0,0,1,3.1,2.93h.3l.19-3.33h4.82V98a31.08,31.08,0,0,1-.77,8,6.32,6.32,0,0,1-3.28,4q-2.51,1.32-7.76,1.32Q274.88,111.26,272.42,111.11Zm8.81-15.26A3.53,3.53,0,0,0,283,94.44a5.38,5.38,0,0,0,.7-2.26,37.45,37.45,0,0,0,.15-3.84,37.54,37.54,0,0,0-.15-3.85,5.38,5.38,0,0,0-.7-2.26,3.47,3.47,0,0,0-1.78-1.46,8.93,8.93,0,0,0-3.18-.47,10.48,10.48,0,0,0-3.94.52,2.88,2.88,0,0,0-1.56,2.11,24.89,24.89,0,0,0-.4,5.41,24.43,24.43,0,0,0,.4,5.35,2.86,2.86,0,0,0,1.56,2.11,10.48,10.48,0,0,0,3.94.52A8.71,8.71,0,0,0,281.23,95.85Z" transform="translate(-0.03)"/><path class="cls-1" d="M99.08,88.33H86.46v16.28a8.94,8.94,0,0,1-17.88,0H55.92a21.58,21.58,0,0,0,43.16.31Z" transform="translate(-0.03)"/><rect class="cls-2" x="99.05" y="75.71" width="12.62" height="12.62"/><rect class="cls-1" x="86.43" y="63.1" width="12.62" height="12.62"/></g><path class="cls-1" d="M122,124.31c2.4,0,2.42-.17,2.42-2.55v-7.28h2.43v6.62c0,4.91-.21,5.06-4.85,5.08Z" transform="translate(-0.03)"/><path class="cls-1" d="M129.9,123.75c0-2,.57-2.7,2.72-2.7l2.65.06v-.34c0-1.51-.33-1.58-2.3-1.58-.75,0-2,.09-2.55.16v-1.72a22.65,22.65,0,0,1,3.3-.26c3.42,0,3.81,1.07,3.81,3.52v5.29H135.4l-.06-1.06h-.12a2.88,2.88,0,0,1-2.74,1.19C130.78,126.31,129.9,125.63,129.9,123.75ZM135,124a2.64,2.64,0,0,0,.26-1.33v-.25h-2c-1,0-1.16.13-1.16,1.09s.21,1,1.48,1C134.26,124.56,134.74,124.44,135,124Z" transform="translate(-0.03)"/><path class="cls-1" d="M141.29,129.48v-1.67c.68,0,1.69,0,2.44,0,2.33,0,2.48-.32,2.48-2.26v-.51h-.1a2.57,2.57,0,0,1-2.5,1.11c-2.17,0-3-1-3-4.37s.83-4.46,3-4.46a2.6,2.6,0,0,1,2.55,1.23h.14l.07-1.09h2.11v7.65c0,3.14-.33,4.52-4.2,4.52A19.77,19.77,0,0,1,141.29,129.48Zm4.65-5.77a3.94,3.94,0,0,0,.27-1.9,4.31,4.31,0,0,0-.25-1.9c-.24-.41-.63-.6-1.38-.6-1.51,0-1.66.24-1.66,2.5s.15,2.46,1.66,2.46C145.33,124.27,145.72,124.1,145.94,123.71Z" transform="translate(-0.03)"/><path class="cls-1" d="M159.25,122.52h-5.4c0,1.72.12,2,2.43,2,.71,0,1.82-.07,2.63-.15V126a16.77,16.77,0,0,1-3.16.27c-3.84,0-4.16-1.22-4.16-4.45s.37-4.49,4-4.49,3.68,1.36,3.68,4.49Zm-5.4-1.39h3.26c0-1.78-.34-2-1.58-2C154.05,119.14,153.87,119.46,153.85,121.13Z" transform="translate(-0.03)"/><path class="cls-1" d="M162.37,117.51h2.12l.07,1.09h.13a2.65,2.65,0,0,1,2.62-1.23c2.36,0,2.72,1.18,2.72,3.39v5.42h-2.26v-4.59c0-2.11-.13-2.26-1.49-2.26s-1.65.66-1.65,2.36v4.49h-2.26Z" transform="translate(-0.03)"/><path class="cls-1" d="M175.76,125.11h-.12l-.07,1.07h-2.12V113.55h2.26v4.91h.12a2.67,2.67,0,0,1,2.55-1.09c2.11,0,2.91,1,2.91,4.47s-.82,4.47-3,4.47A2.62,2.62,0,0,1,175.76,125.11Zm3.27-3.27c0-2.27-.17-2.51-1.67-2.51-.71,0-1.12.15-1.34.53a3.87,3.87,0,0,0-.31,2,4,4,0,0,0,.31,2c.22.37.63.53,1.34.53C178.86,124.38,179,124.16,179,121.84Z" transform="translate(-0.03)"/><path class="cls-1" d="M191.76,122.52h-5.41c0,1.72.12,2,2.43,2,.72,0,1.82-.07,2.64-.15V126a16.92,16.92,0,0,1-3.16.27c-3.84,0-4.17-1.22-4.17-4.45s.38-4.49,4-4.49,3.69,1.36,3.69,4.49Zm-5.41-1.39h3.27c0-1.78-.34-2-1.58-2C186.56,119.14,186.37,119.46,186.35,121.13Z" transform="translate(-0.03)"/><path class="cls-1" d="M194.87,117.51H197l.07,1.5h.14c.46-1.3,1.38-1.64,2.77-1.64v2.16c-2.23,0-2.84.82-2.84,3.18v3.47h-2.26Z" transform="translate(-0.03)"/><path class="cls-1" d="M202.84,129.48v-1.67c.68,0,1.7,0,2.45,0,2.33,0,2.48-.32,2.48-2.26v-.51h-.1a2.57,2.57,0,0,1-2.5,1.11c-2.17,0-3-1-3-4.37s.83-4.46,3-4.46a2.6,2.6,0,0,1,2.55,1.23h.14l.07-1.09H210v7.65c0,3.14-.32,4.52-4.2,4.52A20,20,0,0,1,202.84,129.48Zm4.66-5.77a3.94,3.94,0,0,0,.27-1.9,4.31,4.31,0,0,0-.25-1.9c-.24-.41-.63-.6-1.38-.6-1.51,0-1.67.24-1.67,2.5s.16,2.46,1.67,2.46C206.89,124.27,207.28,124.1,207.5,123.71Z" transform="translate(-0.03)"/><path class="cls-1" d="M218.52,120.33c0-4.69.9-6,5.15-6a23.84,23.84,0,0,1,3.86.37v1.89a28,28,0,0,0-2.93-.26c-3.19,0-3.65.07-3.65,4,0,3.47.32,4,2.8,4a14.13,14.13,0,0,0,1.52-.07v-2.84h-1.93v-1.93h4.24v6.4a22.33,22.33,0,0,1-3.91.39C219.38,126.31,218.52,125.21,218.52,120.33Z" transform="translate(-0.03)"/><path class="cls-1" d="M231.06,117.51h2.13l.07,1.5h.13c.46-1.3,1.38-1.64,2.77-1.64v2.16c-2.22,0-2.84.82-2.84,3.18v3.47h-2.26Z" transform="translate(-0.03)"/><path class="cls-1" d="M238.39,121.83c0-3.5.22-4.46,4-4.46s4,1,4,4.46-.23,4.48-4,4.48S238.39,125.33,238.39,121.83Zm5.68,0c0-2.38,0-2.64-1.7-2.64s-1.7.26-1.7,2.64,0,2.67,1.7,2.67S244.07,124.21,244.07,121.83Z" transform="translate(-0.03)"/><path class="cls-1" d="M249.44,122.93v-5.42h2.26v4.59c0,2.11.15,2.26,1.51,2.26s1.63-.66,1.63-2.36v-4.49h2.27v8.67H255l-.07-1.09h-.14a2.63,2.63,0,0,1-2.61,1.22C249.81,126.31,249.44,125.14,249.44,122.93Z" transform="translate(-0.03)"/><path class="cls-1" d="M260.52,117.51h2.13l.07,1.09h.12a2.61,2.61,0,0,1,2.56-1.23c2.14,0,3,1,3,4.46s-.8,4.48-2.91,4.48a2.63,2.63,0,0,1-2.53-1.08h-.14v4.33h-2.26Zm5.58,4.33c0-2.29-.17-2.53-1.67-2.53-.8,0-1.2.21-1.41.66a4.64,4.64,0,0,0-.24,1.87,5,5,0,0,0,.22,1.86c.21.47.63.66,1.43.66C265.93,124.36,266.1,124.14,266.1,121.84Z" transform="translate(-0.03)"/></g><g id="Space"><path class="cls-3" d="M43.19,25.23H30.57V41.51a8.94,8.94,0,0,1-17.88,0H0a21.58,21.58,0,0,0,43.16.32Z" transform="translate(-0.03)"/><rect class="cls-3" x="43.16" y="12.62" width="12.62" height="12.62"/><rect class="cls-3" x="30.54" width="12.62" height="12.62"/><path class="cls-3" d="M43.19,151.45H30.57v16.28a8.94,8.94,0,0,1-17.88,0H0a21.58,21.58,0,0,0,43.16.31Z" transform="translate(-0.03)"/><rect class="cls-3" x="43.16" y="138.83" width="12.62" height="12.62"/><rect class="cls-3" x="30.54" y="126.21" width="12.62" height="12.62"/><path class="cls-3" d="M332.14,25.23H319.52V41.51a8.94,8.94,0,0,1-17.88,0H289a21.58,21.58,0,0,0,43.16.32Z" transform="translate(-0.03)"/><rect class="cls-3" x="332.11" y="12.62" width="12.62" height="12.62"/><rect class="cls-3" x="319.49" width="12.62" height="12.62"/><path class="cls-3" d="M332.14,151.46H319.52v16.28a8.94,8.94,0,0,1-17.88,0H289a21.58,21.58,0,0,0,43.16.31Z" transform="translate(-0.03)"/><rect class="cls-3" x="332.11" y="138.84" width="12.62" height="12.62"/><rect class="cls-3" x="319.49" y="126.23" width="12.62" height="12.62"/></g></svg>